<svg width="108" height="19" fill="none" xmlns="http://www.w3.org/2000/svg"><path d="M28.752 15.16c-.832 0-1.552-.123-2.16-.368-.597-.256-1.061-.597-1.392-1.024a2.754 2.754 0 01-.576-1.44v-.032c0-.085.032-.155.096-.208a.362.362 0 01.24-.08h.736c.117 0 .213.027.288.08.075.043.133.133.176.272.128.459.41.821.848 1.088.448.267 1.024.4 1.728.4.768 0 1.413-.181 1.936-.544.533-.373.8-.864.8-1.472 0-.63-.23-1.12-.688-1.472-.459-.352-1.083-.528-1.872-.528H27.76a.346.346 0 01-.256-.096.427.427 0 01-.096-.288v-.512c0-.117.032-.208.096-.272a.32.32 0 01.256-.112h1.088c.693 0 1.243-.15 1.648-.448.405-.31.608-.773.608-1.392 0-.523-.224-.944-.672-1.264-.448-.33-.997-.496-1.648-.496-.683 0-1.243.123-1.68.368-.437.245-.71.63-.816 1.152-.053.213-.181.32-.384.32h-.784a.382.382 0 01-.256-.096.261.261 0 01-.096-.24 2.804 2.804 0 011.152-2.048c.693-.512 1.653-.768 2.88-.768.81 0 1.504.139 2.08.416.576.277 1.008.645 1.296 1.104.299.459.448.95.448 1.472 0 .523-.101 1.003-.304 1.44-.203.427-.528.773-.976 1.04.555.277.97.656 1.248 1.136.277.47.416 1.008.416 1.616 0 .65-.176 1.227-.528 1.728-.341.49-.837.875-1.488 1.152-.64.277-1.387.416-2.24.416zm8.643 0a3.343 3.343 0 01-1.456-.32 2.815 2.815 0 01-1.056-.864 2.132 2.132 0 01-.384-1.232c0-.704.288-1.28.864-1.728.576-.448 1.36-.747 2.352-.896l2.4-.336V9.32c0-1.099-.635-1.648-1.904-1.648-.491 0-.886.101-1.184.304a1.829 1.829 0 00-.656.688.54.54 0 01-.144.224.32.32 0 01-.192.048h-.624a.382.382 0 01-.256-.096.382.382 0 01-.096-.256c0-.245.112-.528.336-.848.234-.33.592-.613 1.072-.848.48-.245 1.066-.368 1.76-.368 1.194 0 2.048.277 2.56.832.522.555.784 1.248.784 2.08v5.2a.37.37 0 01-.112.272.346.346 0 01-.256.096h-.704a.346.346 0 01-.256-.096.404.404 0 01-.096-.272v-.704c-.235.352-.576.645-1.024.88-.448.235-1.024.352-1.728.352zm.32-1.168c.704 0 1.28-.23 1.728-.688.448-.459.672-1.125.672-2v-.448l-1.872.272c-.768.107-1.35.288-1.744.544-.395.256-.592.576-.592.96 0 .437.176.773.528 1.008.362.235.789.352 1.28.352zM44.255 15a.404.404 0 01-.272-.096.404.404 0 01-.095-.272V7.048c0-.107.032-.192.096-.256a.37.37 0 01.271-.112h6.304a.32.32 0 01.257.112.35.35 0 01.095.256v7.584a.404.404 0 01-.096.272.346.346 0 01-.255.096h-.705a.404.404 0 01-.271-.096.404.404 0 01-.097-.272v-6.72h-4.16v6.72a.37.37 0 01-.111.272.346.346 0 01-.257.096h-.704zm12.462.16c-1.174 0-2.08-.33-2.72-.992-.63-.661-.966-1.541-1.008-2.64l-.016-.688.016-.688c.042-1.099.384-1.979 1.024-2.64.65-.661 1.552-.992 2.704-.992 1.152 0 2.048.33 2.688.992.65.661.997 1.541 1.04 2.64a7.576 7.576 0 010 1.376c-.043 1.099-.384 1.979-1.024 2.64-.63.661-1.531.992-2.704.992zm0-1.2c.682 0 1.221-.213 1.616-.64.405-.437.624-1.061.656-1.872.01-.107.016-.31.016-.608a7.74 7.74 0 00-.016-.608c-.032-.81-.251-1.43-.656-1.856-.395-.437-.934-.656-1.616-.656-.683 0-1.227.219-1.632.656-.395.427-.608 1.045-.64 1.856l-.016.608.016.608c.032.81.245 1.435.64 1.872.405.427.949.64 1.632.64zM70.64 6.68c.085 0 .16.032.224.096a.29.29 0 01.096.208v7.664a.346.346 0 01-.096.256.346.346 0 01-.256.096h-.72a.346.346 0 01-.256-.096.346.346 0 01-.096-.256v-5.36l-2.08 3.952c-.075.15-.15.261-.224.336-.064.064-.166.096-.304.096h-.4a.478.478 0 01-.32-.096A1.697 1.697 0 0166 13.24l-2.08-3.856v5.264a.346.346 0 01-.096.256.346.346 0 01-.256.096h-.72a.346.346 0 01-.256-.096.346.346 0 01-.096-.256V6.984a.29.29 0 01.096-.208.307.307 0 01.224-.096h.768c.17 0 .298.085.384.256l2.752 5.136 2.768-5.136c.085-.17.213-.256.384-.256h.768zm3.1 8.32a.404.404 0 01-.272-.096.404.404 0 01-.096-.272V7.048c0-.107.032-.192.096-.256a.37.37 0 01.272-.112h.704a.32.32 0 01.256.112.32.32 0 01.112.256v3.088h4.416V7.048c0-.107.032-.192.096-.256a.37.37 0 01.272-.112h.704c.117 0 .208.032.272.096a.368.368 0 01.096.272v7.584a.37.37 0 01-.112.272.346.346 0 01-.256.096h-.704a.404.404 0 01-.272-.096.404.404 0 01-.096-.272v-3.264h-4.416v3.264a.37.37 0 01-.112.272.346.346 0 01-.256.096h-.704zm16.359-8.32c.085 0 .165.032.24.096A.288.288 0 0190.45 7v7.632a.37.37 0 01-.112.272.346.346 0 01-.256.096h-.704a.404.404 0 01-.272-.096.404.404 0 01-.096-.272V8.776l-4.48 5.984c-.118.16-.256.24-.416.24h-.688a.363.363 0 01-.24-.096.363.363 0 01-.096-.24V7.048c0-.107.032-.192.096-.256a.37.37 0 01.272-.112h.704a.32.32 0 01.256.112.32.32 0 01.112.256v5.856l4.48-5.984c.117-.16.256-.24.416-.24h.672zM95.353 15a.404.404 0 01-.272-.096.404.404 0 01-.096-.272v-6.72h-2.8a.404.404 0 01-.272-.096.346.346 0 01-.096-.256v-.512c0-.107.032-.192.096-.256a.37.37 0 01.272-.112h7.024a.32.32 0 01.256.112c.064.064.096.15.096.256v.512a.346.346 0 01-.096.256.346.346 0 01-.256.096h-2.8v6.72a.37.37 0 01-.112.272.346.346 0 01-.256.096h-.688zm5.996 0a.406.406 0 01-.272-.096.404.404 0 01-.096-.272V7.048c0-.107.032-.192.096-.256a.372.372 0 01.272-.112h.704a.32.32 0 01.256.112.32.32 0 01.112.256V9.4h1.808c1.056 0 1.84.25 2.352.752.512.49.768 1.19.768 2.096 0 .939-.272 1.632-.816 2.08-.544.448-1.376.672-2.496.672h-2.688zm2.752-1.168c.662 0 1.142-.117 1.44-.352.299-.245.448-.656.448-1.232 0-.565-.149-.987-.448-1.264-.298-.277-.778-.416-1.44-.416h-1.696v3.264h1.696z" fill="#333"/><rect x=".5" y="1.5" width="15" height="15" rx="3.5" stroke="#333"/></svg>